# Blender v2.83.16 Release Candidate OBJ File: 'untitled.blend'
# www.blender.org
mtllib tank2.mtl
o Cube
v 26.000000 26.000000 -26.000000
v 26.000000 0.000000 -26.000000
v 26.000000 26.000000 26.000000
v 26.000000 0.000000 26.000000
v -26.000000 26.000000 -26.000000
v -26.000000 0.000000 -26.000000
v -26.000000 26.000000 26.000000
v -26.000000 0.000000 26.000000
v 24.161583 26.000000 -24.161583
v 24.498892 0.750554 -24.498892
v 24.161583 26.000000 24.161583
v 24.498892 0.750554 24.498892
v -24.161583 26.000000 -24.161583
v -24.498892 0.750554 -24.498892
v -24.161583 26.000000 24.161583
v -24.498892 0.750554 24.498892
vt 0.625000 0.750000
vt 0.375000 1.000000
vt 0.375000 0.750000
vt 0.625000 0.000000
vt 0.375000 0.250000
vt 0.375000 0.000000
vt 0.375000 0.500000
vt 0.125000 0.750000
vt 0.125000 0.500000
vt 0.625000 0.500000
vt 0.625000 0.250000
vt 0.375000 1.000000
vt 0.625000 0.750000
vt 0.375000 0.750000
vt 0.375000 0.250000
vt 0.625000 0.000000
vt 0.375000 0.000000
vt 0.125000 0.750000
vt 0.375000 0.500000
vt 0.125000 0.500000
vt 0.625000 0.500000
vt 0.625000 0.250000
vt 0.625000 1.000000
vt 0.625000 1.000000
vn 0.0000 0.0000 1.0000
vn -1.0000 0.0000 0.0000
vn 0.0000 -1.0000 0.0000
vn 1.0000 0.0000 0.0000
vn 0.0000 0.0000 -1.0000
vn 0.0000 -0.0134 -0.9999
vn 0.9999 -0.0134 0.0000
vn 0.0000 1.0000 0.0000
vn -0.9999 -0.0134 0.0000
vn 0.0000 -0.0134 0.9999
usemtl Material
s off
f 3/1/1 8/2/1 4/3/1
f 7/4/2 6/5/2 8/6/2
f 2/7/3 8/8/3 6/9/3
f 1/10/4 4/3/4 2/7/4
f 5/11/5 2/7/5 6/5/5
f 16/12/6 11/13/6 12/14/6
f 14/15/7 15/16/7 16/17/7
f 16/18/8 10/19/8 14/20/8
f 12/14/9 9/21/9 10/19/9
f 10/19/10 13/22/10 14/15/10
f 3/1/8 15/23/8 7/24/8
f 1/10/8 11/13/8 3/1/8
f 7/4/8 13/22/8 5/11/8
f 5/11/8 9/21/8 1/10/8
f 3/1/1 7/24/1 8/2/1
f 7/4/2 5/11/2 6/5/2
f 2/7/3 4/3/3 8/8/3
f 1/10/4 3/1/4 4/3/4
f 5/11/5 1/10/5 2/7/5
f 16/12/6 15/23/6 11/13/6
f 14/15/7 13/22/7 15/16/7
f 16/18/8 12/14/8 10/19/8
f 12/14/9 11/13/9 9/21/9
f 10/19/10 9/21/10 13/22/10
f 3/1/8 11/13/8 15/23/8
f 1/10/8 9/21/8 11/13/8
f 7/4/8 15/16/8 13/22/8
f 5/11/8 13/22/8 9/21/8
o Cube.001_Cube.002
v -25.000000 0.500000 25.000000
v -25.000000 5.500000 25.000000
v -25.000000 0.500000 -25.000000
v -25.000000 5.500000 -25.000000
v 25.000000 0.500000 25.000000
v 25.000000 5.500000 25.000000
v 25.000000 0.500000 -25.000000
v 25.000000 5.500000 -25.000000
vt 0.625000 0.000000
vt 0.375000 0.250000
vt 0.375000 0.000000
vt 0.625000 0.250000
vt 0.375000 0.500000
vt 0.625000 0.500000
vt 0.375000 0.750000
vt 0.625000 0.750000
vt 0.375000 1.000000
vt 0.125000 0.750000
vt 0.125000 0.500000
vt 0.875000 0.500000
vt 0.625000 1.000000
vt 0.875000 0.750000
vn -1.0000 0.0000 0.0000
vn 0.0000 0.0000 -1.0000
vn 1.0000 0.0000 0.0000
vn 0.0000 0.0000 1.0000
vn 0.0000 -1.0000 0.0000
vn 0.0000 1.0000 0.0000
usemtl Material.002
s off
f 18/25/11 19/26/11 17/27/11
f 20/28/12 23/29/12 19/26/12
f 24/30/13 21/31/13 23/29/13
f 22/32/14 17/33/14 21/31/14
f 23/29/15 17/34/15 19/35/15
f 20/36/16 22/32/16 24/30/16
f 18/25/11 20/28/11 19/26/11
f 20/28/12 24/30/12 23/29/12
f 24/30/13 22/32/13 21/31/13
f 22/32/14 18/37/14 17/33/14
f 23/29/15 21/31/15 17/34/15
f 20/36/16 18/38/16 22/32/16
